<?xml version="1.0" encoding="UTF-8" standalone="no"?>
<svg
   xmlns:dc="http://purl.org/dc/elements/1.1/"
   xmlns:cc="http://creativecommons.org/ns#"
   xmlns:rdf="http://www.w3.org/1999/02/22-rdf-syntax-ns#"
   xmlns:svg="http://www.w3.org/2000/svg"
   xmlns="http://www.w3.org/2000/svg"
   xmlns:sodipodi="http://sodipodi.sourceforge.net/DTD/sodipodi-0.dtd"
   xmlns:inkscape="http://www.inkscape.org/namespaces/inkscape"
   height="32px"
   id="Layer_1"
   style="enable-background:new 0 0 32 32;"
   version="1.1"
   viewBox="0 0 32 32"
   width="32px"
   xml:space="preserve"
   sodipodi:docname="three-lines-grey.svg"
   inkscape:version="0.92.5 (2060ec1f9f, 2020-04-08)"><metadata
     id="metadata3861"><rdf:RDF><cc:Work
         rdf:about=""><dc:format>image/svg+xml</dc:format><dc:type
           rdf:resource="http://purl.org/dc/dcmitype/StillImage" /><dc:title></dc:title></cc:Work></rdf:RDF></metadata><defs
     id="defs3859" /><sodipodi:namedview
     pagecolor="#ffffff"
     bordercolor="#666666"
     borderopacity="1"
     objecttolerance="10"
     gridtolerance="10"
     guidetolerance="10"
     inkscape:pageopacity="0"
     inkscape:pageshadow="2"
     inkscape:window-width="1366"
     inkscape:window-height="697"
     id="namedview3857"
     showgrid="false"
     inkscape:zoom="15.75"
     inkscape:cx="16"
     inkscape:cy="16"
     inkscape:window-x="0"
     inkscape:window-y="34"
     inkscape:window-maximized="1"
     inkscape:current-layer="Layer_1" /><path
     d="M4,10h24c1.104,0,2-0.896,2-2s-0.896-2-2-2H4C2.896,6,2,6.896,2,8S2.896,10,4,10z M28,14H4c-1.104,0-2,0.896-2,2  s0.896,2,2,2h24c1.104,0,2-0.896,2-2S29.104,14,28,14z M28,22H4c-1.104,0-2,0.896-2,2s0.896,2,2,2h24c1.104,0,2-0.896,2-2  S29.104,22,28,22z"
     id="path3854" /><path
     style="fill:#666666;stroke-width:0.06349207"
     d="M 3.4793651,9.8961824 C 2.925758,9.7271725 2.4349233,9.3000731 2.1977112,8.7809524 1.9910818,8.3287597 1.9956853,7.632807 2.2081996,7.1953067 2.4032323,6.7937955 2.791176,6.4050647 3.1953067,6.2061971 L 3.5111111,6.0507937 H 15.955556 c 12.087298,0 12.453448,0.00347 12.758181,0.1210022 0.971913,0.3748486 1.487877,1.5459958 1.115615,2.5322495 -0.183758,0.4868397 -0.634414,0.9404259 -1.111815,1.1190445 L 28.36349,9.9555556 16.000793,9.9500982 C 9.2013092,9.9470967 3.5666667,9.9228346 3.4793651,9.8961824 Z"
     id="path3863"
     inkscape:connector-curvature="0" /><path
     style="fill:#666666;stroke-width:0.06349207"
     d="M 3.4793651,17.896182 C 2.925758,17.727173 2.4349233,17.300073 2.1977112,16.780952 1.9910818,16.32876 1.9956853,15.632807 2.2081996,15.195307 2.4032323,14.793795 2.791176,14.405065 3.1953067,14.206197 L 3.5111111,14.050794 H 15.955556 c 12.087298,0 12.453448,0.0035 12.758181,0.121002 0.971913,0.374848 1.487877,1.545996 1.115615,2.532249 -0.183758,0.48684 -0.634414,0.940426 -1.111815,1.119045 l -0.354047,0.132466 -12.362697,-0.0055 c -6.7994838,-0.003 -12.4341263,-0.02726 -12.5214279,-0.05392 z"
     id="path3865"
     inkscape:connector-curvature="0" /><path
     style="fill:#666666;stroke-width:0.06349207"
     d="M 3.4793651,25.896182 C 2.925758,25.727173 2.4349233,25.300073 2.1977112,24.780952 1.9910818,24.32876 1.9956853,23.632807 2.2081996,23.195307 2.4032323,22.793795 2.791176,22.405065 3.1953067,22.206197 L 3.5111111,22.050794 H 15.955556 c 12.087298,0 12.453448,0.0035 12.758181,0.121002 0.971913,0.374848 1.487877,1.545996 1.115615,2.532249 -0.183758,0.48684 -0.634414,0.940426 -1.111815,1.119045 l -0.354047,0.132466 -12.362697,-0.0055 c -6.7994838,-0.003 -12.4341263,-0.02726 -12.5214279,-0.05392 z"
     id="path3867"
     inkscape:connector-curvature="0" /></svg>